<svg width="39" height="39" viewBox="0 0 39 39" fill="none" xmlns="http://www.w3.org/2000/svg">
<g clip-path="url(#clip0_6_659)">
<path d="M37.99 19.4599C37.99 29.6899 29.69 37.9899 19.46 37.9899C9.22999 37.9899 0.929993 29.6999 0.929993 19.4599C0.929993 9.21993 9.22999 0.929932 19.46 0.929932C29.69 0.929932 37.99 9.22993 37.99 19.4599Z" fill="#AECECB" stroke="black" stroke-width="1.86" stroke-miterlimit="10"/>
<path d="M33.16 19.46C33.16 27.03 27.03 33.16 19.46 33.16C11.89 33.16 5.76001 27.03 5.76001 19.46C5.76001 11.89 11.9 5.76001 19.46 5.76001C27.02 5.76001 33.16 11.89 33.16 19.46Z" fill="white" stroke="black" stroke-width="1.86" stroke-miterlimit="10"/>
<path d="M20.16 20.96H11.91V19.38H18.58V10.29H20.16V20.96Z" fill="#5B6C79"/>
</g>
<defs>
<clipPath id="clip0_6_659">
<rect width="38.92" height="38.92" fill="white"/>
</clipPath>
</defs>
</svg>
