<svg width="45" height="45" viewBox="0 0 45 45" fill="none" xmlns="http://www.w3.org/2000/svg">
<g clip-path="url(#clip0_71_57)">
<path d="M38.0738 20.7807H26.6732C26.1601 20.7807 25.7421 20.3647 25.7421 19.8543C25.7421 19.3438 26.1601 18.9279 26.6732 18.9279L37.1618 18.8522C37.1618 15.9407 36.2497 13.8043 34.3686 12.3485C33.9696 12.0271 33.8936 11.4599 34.2166 11.0629C34.5206 10.6659 35.1097 10.5902 35.5087 10.9116C37.8268 12.7077 39.0049 15.3924 39.0049 18.8711V19.8732C39.0049 20.3836 38.5869 20.7996 38.0738 20.7996V20.7807Z" fill="#000001"/>
<path d="M23.025 20.7806H8.92617C8.41314 20.7806 7.99512 20.3646 7.99512 19.8542V18.8521C8.01412 8 19.6618 8 23.5 8C27.3382 8 30.6064 8.47265 32.9815 9.47468C33.4566 9.66374 33.6656 10.212 33.4756 10.6847C33.2856 11.1573 32.7345 11.3653 32.2595 11.1762C30.1124 10.2876 27.2432 9.8528 23.5 9.8528C14.0565 9.8339 9.85722 12.632 9.85722 18.871V18.9467H23.044C23.557 18.9467 23.975 19.3626 23.975 19.8731C23.975 20.3835 23.557 20.7995 23.044 20.7995L23.025 20.7806Z" fill="#000001"/>
<path d="M18.7117 29.1748H18.2557C17.7427 29.1748 17.3246 28.7589 17.3246 28.2484C17.3246 27.738 17.7427 27.322 18.2557 27.322H18.7117C19.2248 27.322 19.6428 27.738 19.6428 28.2484C19.6428 28.7589 19.2248 29.1748 18.7117 29.1748Z" fill="#000001"/>
<path d="M9.68623 34.0715C9.38221 34.0715 9.09719 33.9392 8.92618 33.6745C8.33715 32.8048 8.01413 31.7839 8.01413 30.7251V28.2484C8.01413 27.738 8.43215 27.322 8.94518 27.322H14.6265C15.1395 27.322 15.5576 27.738 15.5576 28.2484C15.5576 28.7589 15.1395 29.1748 14.6265 29.1748H9.87624V30.7251C9.87624 31.4057 10.0852 32.0675 10.4653 32.6346C10.7503 33.0506 10.6363 33.6178 10.2183 33.9014C10.0662 34.0148 9.87624 34.0526 9.70523 34.0526L9.68623 34.0715Z" fill="#000001"/>
<path d="M33.7036 36.0001H13.2964C12.6314 36.0001 11.9664 35.8677 11.3583 35.622C10.8833 35.4329 10.6553 34.9035 10.8453 34.4309C11.0353 33.9582 11.5673 33.7313 12.0424 33.9204C12.4414 34.0717 12.8784 34.1662 13.3154 34.1662H33.7226C35.6227 34.1662 37.1808 32.6348 37.1808 30.7442V29.1939H18.7117C18.1987 29.1939 17.7807 28.7779 17.7807 28.2675C17.7807 27.757 18.1987 27.3411 18.7117 27.3411H38.0928C38.6059 27.3411 39.0239 27.757 39.0239 28.2675V30.7442C39.0239 33.6557 36.6488 36.019 33.7226 36.019L33.7036 36.0001Z" fill="#000001"/>
<path d="M6.93104 25.753C6.57002 25.753 6.228 25.545 6.07599 25.2047C5.86698 24.732 6.07599 24.2027 6.55102 23.9947L12.0803 21.5936C12.3083 21.4991 12.5744 21.4991 12.8214 21.5936L18.1987 23.938C18.4837 23.9947 18.7497 24.1648 18.8637 24.4484C19.0727 24.9211 18.9017 25.4316 18.4457 25.6395C18.1987 25.734 17.8377 25.7908 17.5906 25.6773L12.4414 23.4275L7.29206 25.6773C7.17805 25.734 7.04504 25.753 6.93104 25.753Z" fill="#000001"/>
<path d="M40.088 25.7528C39.9549 25.7528 39.8409 25.7339 39.7269 25.6772L34.5776 23.4274L29.4283 25.6772C29.2003 25.7717 28.9153 25.7717 28.6873 25.6772L23.576 23.4463C23.101 23.2383 22.892 22.7089 23.101 22.2363C23.31 21.7636 23.861 21.5557 24.3171 21.7636L29.0673 23.8244L34.2166 21.5746C34.4446 21.48 34.7296 21.48 34.9577 21.5746L40.487 23.9756C40.962 24.1836 41.171 24.713 40.962 25.1856C40.81 25.5259 40.468 25.7339 40.107 25.7339L40.088 25.7528Z" fill="#000001"/>
</g>
<g clip-path="url(#clip1_71_57)">
<path d="M0.841341 45.0001C0.624995 45.0001 0.408649 44.9279 0.24038 44.7597C-0.0961585 44.4231 -0.0961585 43.8943 0.24038 43.5578L43.5577 0.240441C43.8942 -0.0960975 44.4231 -0.0960975 44.7356 0.240441C45.0481 0.576979 45.0721 1.10583 44.7356 1.44236L1.4423 44.7597C1.27403 44.9279 1.05769 45.0001 0.841341 45.0001Z" fill="#000001"/>
</g>
<defs>
<clipPath id="clip0_71_57">
<rect width="35" height="28" fill="white" transform="translate(6 8)"/>
</clipPath>
<clipPath id="clip1_71_57">
<rect width="45" height="45" fill="white"/>
</clipPath>
</defs>
</svg>
