<svg width="45" height="45" viewBox="0 0 45 45" fill="none" xmlns="http://www.w3.org/2000/svg">
<g clip-path="url(#clip0_71_58)">
<path d="M29.504 39C28.4426 39 27.5786 38.1255 27.5786 37.0512V28.556C27.5786 28.3998 27.5231 28.2624 27.412 28.15C27.3071 28.0438 27.1714 27.9876 27.0233 27.9876C24.3759 27.9876 18.0323 28 16.1625 28C15.5639 31.0421 12.9166 33.2658 9.80032 33.2658H8.89937C8.67104 33.2658 8.48592 33.4532 8.48592 33.6843V37.0512C8.48592 38.1255 7.62199 39 6.5606 39H6.17184C5.11044 39 4.24652 38.1255 4.24652 37.0512V31.3856C4.24652 30.8047 4.47484 30.2613 4.88212 29.8552C5.2894 29.4492 5.82627 29.2493 6.40633 29.2431C6.62848 29.2306 6.83829 29.1619 6.99873 29.0057C7.15918 28.8496 7.24557 28.6372 7.24557 28.4061V21.7411C7.24557 21.2351 7.31962 20.7417 7.46772 20.2607C4.84509 19.5236 3 17.1125 3 14.2704V10.1602C3 9.82288 3.25918 9.54803 3.59241 9.53554C3.91946 9.5168 4.20332 9.77291 4.23418 10.104C4.49953 13.196 5.38196 15.2948 6.8568 16.3442C8.33782 17.3998 10.0472 17.1062 10.7074 16.9313C10.7691 16.9064 10.8802 16.8751 10.9851 16.8501C10.9975 16.8501 11.0098 16.8501 11.016 16.8439C11.4356 16.7377 11.8552 16.6815 12.2563 16.6815H27.2824L30.2136 13.0398V12.4089C30.2136 11.9529 30.3 11.5032 30.4666 11.0847C30.3123 10.9285 30.1642 10.7723 30.0285 10.5974C28.819 9.06081 28.6771 7.20562 29.7014 6.38108C30.732 5.55031 32.4845 6.10624 33.694 7.64287C34.0087 8.03639 34.2555 8.47364 34.4283 8.9109C34.5579 8.93588 34.6813 8.96711 34.7986 9.00459L40.0562 10.6911C41.2163 11.0597 41.9938 12.1403 41.9938 13.3709C41.9938 14.845 40.8522 16.0756 39.3959 16.1755L38.9948 16.2005C36.4215 16.3692 34.1136 17.8121 32.8054 20.0608C32.719 20.217 32.6881 20.3919 32.7313 20.5543C32.8239 20.9416 32.8733 21.3413 32.8733 21.7349V24.8019C32.8733 25.2516 32.8116 25.7076 32.6881 26.1573L31.4108 37.2448C31.312 38.2317 30.4913 38.9876 29.4978 38.9876L29.504 39ZM27.0233 26.7445C27.4984 26.7445 27.9489 26.9319 28.2883 27.2755C28.6277 27.619 28.8128 28.075 28.8128 28.5622V37.0574C28.8128 37.4447 29.1214 37.757 29.504 37.757C29.8619 37.757 30.1519 37.4884 30.1889 37.1324L31.4725 25.9824C31.4725 25.9512 31.4848 25.9137 31.491 25.8825C31.5897 25.5327 31.6391 25.1767 31.6391 24.8269V21.7598C31.6391 21.4663 31.6021 21.1664 31.5342 20.8728C31.4169 20.3919 31.491 19.8859 31.744 19.4487C33.2559 16.8439 35.934 15.1698 38.9146 14.97L39.3157 14.945C40.1241 14.895 40.7535 14.2079 40.7535 13.3896C40.7535 12.7087 40.3215 12.1091 39.6797 11.9029L34.4283 10.2164C34.2679 10.1664 34.1013 10.1352 33.9223 10.1165C33.6693 10.0977 33.4533 9.91657 33.3793 9.66672C33.2559 9.2482 33.0337 8.82345 32.7313 8.43617C31.9353 7.42424 30.8801 7.04321 30.4728 7.37427C30.0655 7.70533 30.2013 8.82969 30.9911 9.83537C31.1701 10.0602 31.3737 10.2664 31.6082 10.4538C31.8489 10.6474 31.9106 10.991 31.7563 11.2596C31.5465 11.6219 31.4416 12.0091 31.4416 12.4214V13.2772C31.4416 13.4208 31.3922 13.5583 31.2997 13.6707L28.0415 17.7121C27.9242 17.8558 27.7514 17.9433 27.5663 17.9433H12.2625C11.9601 17.9433 11.6454 17.987 11.3245 18.0682C11.3122 18.0682 11.2998 18.0682 11.2875 18.0744C11.1949 18.0994 11.1271 18.1244 11.0592 18.1432C10.1829 18.3743 8.04161 18.7366 6.14098 17.3811C5.41899 16.8626 4.81424 16.163 4.33291 15.2823C4.74636 17.2811 6.36313 18.8927 8.41187 19.205C8.60317 19.2363 8.77595 19.355 8.86851 19.5299C8.96108 19.7048 8.96108 19.9171 8.87468 20.092C8.62168 20.6167 8.49209 21.1789 8.49209 21.7536V28.4186C8.49209 28.987 8.26994 29.5117 7.875 29.9052C7.48006 30.2987 6.94937 30.4924 6.39399 30.4986C6.15949 30.4861 5.925 30.5861 5.75839 30.7547C5.5856 30.9234 5.49304 31.1483 5.49304 31.3919V37.0574C5.49304 37.4447 5.80158 37.757 6.18418 37.757H6.57294C6.95554 37.757 7.26408 37.4447 7.26408 37.0574V33.6906C7.26408 32.7723 8.00459 32.0228 8.91171 32.0228H9.81266C12.4847 32.0228 14.7309 29.9989 15.0332 27.3067C15.0703 26.9944 15.3294 26.7508 15.6441 26.7508C15.6441 26.7508 23.9008 26.7508 27.0294 26.7383L27.0233 26.7445Z" fill="black"/>
<path d="M33.6039 19.1151L27.5564 15.4165L26.1555 17.7636L32.203 21.4622L33.6039 19.1151Z" fill="#F5F4F1"/>
<path d="M32.2006 22.0846C32.0896 22.0846 31.9785 22.0534 31.8797 21.9972L25.8323 18.2993C25.5422 18.1181 25.4497 17.7371 25.6225 17.4435L27.0233 15.0948C27.1097 14.9512 27.2454 14.8512 27.4059 14.8137C27.5663 14.7763 27.7329 14.8012 27.8748 14.8887L33.9223 18.5866C34.2123 18.7677 34.3049 19.1488 34.1321 19.4424L32.7313 21.791C32.6449 21.9347 32.5092 22.0346 32.3487 22.0721C32.2994 22.0846 32.25 22.0909 32.2006 22.0909V22.0846ZM26.9986 17.5497L31.9908 20.6042L32.7498 19.3299L27.7576 16.2754L26.9986 17.5497Z" fill="black"/>
<path d="M40.3215 12.8398C40.9077 12.8398 41.3829 12.6496 41.3829 12.415C41.3829 12.1804 40.9077 11.9902 40.3215 11.9902C39.7353 11.9902 39.2601 12.1804 39.2601 12.415C39.2601 12.6496 39.7353 12.8398 40.3215 12.8398Z" fill="#F5F4F1"/>
<path d="M40.3215 13.4582C39.3219 13.4582 38.6431 13.0397 38.6431 12.4088C38.6431 11.7779 39.3157 11.3594 40.3215 11.3594C41.3274 11.3594 42 11.7779 42 12.4088C42 13.0397 41.3274 13.4582 40.3215 13.4582Z" fill="black"/>
</g>
<g clip-path="url(#clip1_71_58)">
<path d="M0.841341 45.0001C0.624995 45.0001 0.408649 44.9279 0.24038 44.7597C-0.0961585 44.4231 -0.0961585 43.8943 0.24038 43.5578L43.5577 0.240441C43.8942 -0.0960975 44.4231 -0.0960975 44.7356 0.240441C45.0481 0.576979 45.0721 1.10583 44.7356 1.44236L1.4423 44.7597C1.27403 44.9279 1.05769 45.0001 0.841341 45.0001Z" fill="#000001"/>
</g>
<defs>
<clipPath id="clip0_71_58">
<rect width="39" height="33" fill="white" transform="translate(3 6)"/>
</clipPath>
<clipPath id="clip1_71_58">
<rect width="45" height="45" fill="white"/>
</clipPath>
</defs>
</svg>
