<svg width="51" height="40" viewBox="0 0 51 40" fill="none" xmlns="http://www.w3.org/2000/svg">
<g clip-path="url(#clip0_6_783)">
<path d="M25.0315 25.748C24.6873 25.748 24.4095 25.4643 24.4095 25.1128C24.4095 24.8164 24.6085 24.5666 24.8781 24.4989V23.0677C24.8781 22.7163 25.1559 22.4326 25.5 22.4326C25.8441 22.4326 26.122 22.7163 26.122 23.0677V24.6386C26.122 25.3034 25.5581 25.7522 25.0315 25.7522V25.748Z" fill="#0B0E11"/>
<path d="M12.6007 14.3834H12.2317C11.8875 14.3834 11.6097 14.0997 11.6097 13.7483C11.6097 13.3968 11.8875 13.1131 12.2317 13.1131H12.6007C12.7417 13.1131 12.8536 12.9988 12.8536 12.8549V11.284C12.8536 9.27277 14.0146 8.94251 14.3712 8.88747C14.4002 8.88747 14.4251 8.879 14.4541 8.879L15.9551 8.86206C16.3034 8.86206 16.5812 9.14151 16.5854 9.48871C16.5854 9.84015 16.3158 10.1281 15.9717 10.1323L14.5246 10.1492C14.1307 10.2466 14.1017 11.0384 14.1017 11.284V12.8549C14.1017 13.6975 13.43 14.3834 12.6049 14.3834H12.6007Z" fill="#0B0E11"/>
<path d="M21.0261 10.1408L19.8444 9.73851C20.1885 8.6842 19.8195 5.71607 19.5458 5.26725C19.5458 5.26725 19.5541 5.28418 19.579 5.30535L20.458 4.40771C21.1049 5.06824 21.4697 8.76465 21.0219 10.1408H21.0261Z" fill="#0B0E11"/>
<path d="M1.2439 40.0001H0V28.9616C0 24.8672 1.85756 22.4114 6.20707 20.7474C7.76195 20.1546 8.70732 19.6973 8.70732 18.3763V17.7327H9.95122V18.3763C9.95122 20.6712 8.11854 21.3698 6.64659 21.9329C2.76146 23.4191 1.2439 25.388 1.2439 28.9616V40.0001Z" fill="#0B0E11"/>
<path d="M6.63416 31.9551H5.39026V40H6.63416V31.9551Z" fill="#0B0E11"/>
<path d="M12.8619 19.8793C9.98439 19.8793 6.63414 16.8688 6.63414 12.9861V10.2339C6.63414 9.23463 6.83731 8.31582 7.23951 7.51556C7.90707 6.17757 8.9561 5.37309 10.2705 5.18678C11.1454 5.06399 12.2566 5.33074 13.4341 5.61443C15.1839 6.03785 17.17 6.51631 18.3849 5.67794C18.9488 5.2884 19.3385 4.62788 19.5707 3.67096C18.6793 3.51853 17.9495 3.10358 17.1866 2.6717C16.3241 2.18054 15.4327 1.67667 14.1266 1.41839C10.7805 0.757865 9.58219 2.61666 9.56975 2.63359C9.47853 2.78179 9.33341 2.88341 9.16756 2.91728C7.95683 3.16286 7.04463 3.77258 6.44756 4.72526C5.57268 6.12676 5.37366 8.32852 5.91683 10.6107L4.7061 10.9114C4.08414 8.29888 4.34122 5.72875 5.39439 4.04356C6.14073 2.84953 7.24366 2.07045 8.68658 1.72325C9.19658 1.0966 10.8924 -0.516614 14.3588 0.169318C15.8598 0.465708 16.8839 1.04579 17.7878 1.55812C18.6751 2.06198 19.3759 2.45999 20.3088 2.45999C20.4912 2.45999 20.6612 2.54044 20.7815 2.68017C20.9017 2.81989 20.9515 3.0062 20.9266 3.18827C20.6778 4.86075 20.0559 6.05055 19.0773 6.72378C19.0649 6.73225 19.0649 12.9776 19.0649 12.9776C19.0649 16.8603 15.7271 19.8708 12.8537 19.8708L12.8619 19.8793ZM10.7515 6.42315C10.6437 6.42315 10.54 6.42739 10.4446 6.44433C9.53658 6.57135 8.83171 7.12602 8.35073 8.09141C8.03975 8.71383 7.88219 9.43363 7.88219 10.2339V12.9861C7.88219 16.1024 10.6063 18.609 12.8661 18.609C15.1259 18.609 17.8334 16.1024 17.8334 12.9861V7.27845C16.378 7.62565 14.6905 7.21917 13.1563 6.84657C12.2524 6.63063 11.39 6.41892 10.7556 6.41892L10.7515 6.42315Z" fill="#0B0E11"/>
<path d="M12.3768 23.8805C10.3037 23.8805 8.45026 22.5383 7.76196 20.544L8.93538 20.1206C9.44952 21.611 10.8344 22.6103 12.3768 22.6103C13.4093 22.6103 14.3961 22.1615 15.0885 21.3781L16.0132 22.2292C15.0844 23.2793 13.7617 23.8848 12.3768 23.8848V23.8805Z" fill="#0B0E11"/>
<path d="M16.1707 39.5766H14.9268V38.2513C14.9268 34.8005 16.4983 32.8105 20.3544 31.3793C21.8222 30.8331 22.4358 30.452 22.4358 29.4824H23.6797C23.6797 31.4936 22.0046 32.1161 20.7773 32.5734C17.4188 33.8224 16.1666 35.3594 16.1666 38.2513V39.5766H16.1707Z" fill="#0B0E11"/>
<path d="M35.6586 39.5766H34.4146V38.2259C34.4146 35.3551 33.1749 33.8266 29.8371 32.586C28.6181 32.1329 26.9512 31.5148 26.9512 29.512V28.9912H28.1951V29.512C28.1951 30.4689 28.8046 30.85 30.26 31.392C34.0954 32.8146 35.6586 34.7962 35.6586 38.2259V39.5766Z" fill="#0B0E11"/>
<path d="M20.7317 37.3538H19.4878V39.5767H20.7317V37.3538Z" fill="#0B0E11"/>
<path d="M31.0976 37.3538H29.8537V39.5767H31.0976V37.3538Z" fill="#0B0E11"/>
<path d="M31.8812 22.5425L30.6539 22.3392C31.3132 18.2025 28.8585 16.0642 27.2995 15.4545C25.388 14.7051 22.9293 14.6458 22.1415 16.0177C22.0461 16.187 21.8761 16.3014 21.6895 16.3268C19.691 16.602 19.2722 19.3965 19.2722 21.6914H18.0283C18.0283 16.9153 19.7117 15.4588 21.2376 15.12C22.4939 13.3713 25.4129 13.3502 27.7515 14.269C30.3098 15.2725 32.5778 18.2237 31.8854 22.5467L31.8812 22.5425Z" fill="#0B0E11"/>
<path d="M25.0895 30.4648C22.5934 30.4648 19.6951 27.8989 19.6951 24.5878H20.939C20.939 27.069 23.2237 29.1946 25.0895 29.1946C27.1461 29.1946 29.1612 26.7303 29.1737 24.2067L29.0285 22.5046C26.802 22.2633 24.8283 20.9253 22.751 19.5153L22.3488 19.2443C21.1339 19.401 20.9224 20.667 20.9349 23.1694V23.542H19.691V23.1736C19.6785 21.137 19.6661 18.0587 22.4939 17.9571C22.6224 17.9487 22.751 17.991 22.8588 18.063L23.4393 18.4568C25.6285 19.9387 27.5193 21.2217 29.6173 21.2725C29.9324 21.2809 30.1937 21.5307 30.2227 21.8525L30.4134 24.1263C30.4134 24.1263 30.4134 24.1644 30.4134 24.1813C30.4134 27.412 27.822 30.4648 25.0854 30.4648H25.0895Z" fill="#0B0E11"/>
<path d="M25.1973 34.5126C23.5554 34.5126 22.0917 33.3567 21.5527 31.6334L22.7385 31.248C23.1117 32.4421 24.0985 33.2423 25.1973 33.2423C26.2961 33.2423 27.2829 32.4421 27.6561 31.248L28.8419 31.6334C28.3029 33.3567 26.8393 34.5126 25.1973 34.5126Z" fill="#0B0E11"/>
<path d="M34.4312 22.3563L34.0083 21.1623C35.7539 20.5187 36.4878 20.0614 36.4878 18.8928V18.8335H37.7317V18.8928C37.7317 21.1411 35.8244 21.844 34.4312 22.3563Z" fill="#0B0E11"/>
<path d="M51 40.0001H49.7561V28.9744C49.7561 24.7021 46.9656 23.3175 44.3493 22.3522C42.9561 21.8398 41.0488 21.137 41.0488 18.8886V18.8293H42.2927V18.8886C42.2927 20.0572 43.0224 20.5145 44.7722 21.1581C46.7956 21.9033 51 23.453 51 28.9744V40.0001Z" fill="#0B0E11"/>
<path d="M45.6097 31.9551H44.3658V40H45.6097V31.9551Z" fill="#0B0E11"/>
<path d="M39.3114 19.9343C36.6039 19.9343 33.1707 16.5386 33.1707 12.7236V10.3567C33.1707 10.0899 33.3324 9.85284 33.5771 9.75969C33.6102 9.74698 37.0766 8.42593 38.8056 5.90238C38.9175 5.73724 39.1 5.63563 39.299 5.63139C39.4856 5.62292 39.6846 5.71607 39.8049 5.87697C41.5546 8.17611 45.1288 9.75545 45.1661 9.77239C45.4024 9.87824 45.5517 10.1196 45.5434 10.3821L45.448 12.7363C45.4397 16.547 42.0107 19.9301 39.3073 19.9301L39.3114 19.9343ZM34.4146 10.7886V12.7236C34.4146 15.7806 37.1719 18.6641 39.3114 18.6641C41.451 18.6641 44.2083 15.7849 44.2083 12.7236C44.2083 12.7151 44.2083 12.7067 44.2083 12.6982L44.2871 10.7589C43.3541 10.3059 40.9783 9.04835 39.3446 7.27424C37.7193 9.22195 35.3641 10.3779 34.4188 10.7886H34.4146Z" fill="#0B0E11"/>
<path d="M38.9424 26.2136C37.4498 26.2136 36.0442 25.625 34.9744 24.5623L35.8451 23.6562C36.6785 24.4861 37.7773 24.9476 38.9424 24.9476C40.8166 24.9476 42.4959 23.7366 43.1178 21.9329L44.2912 22.3563C43.4951 24.6681 41.3432 26.2221 38.9424 26.2221V26.2136Z" fill="#0B0E11"/>
<path d="M49.271 21.5984L48.0354 21.4629C48.1681 20.2053 47.372 18.9012 46.1861 18.427C45.9912 18.3508 45.8461 18.1772 45.8046 17.9697C45.759 17.7622 45.8212 17.5421 45.9705 17.3896C46.5427 16.7968 46.8122 15.9415 46.6671 15.1625L46.5717 14.6459C46.4556 13.9938 46.3064 13.1809 46.1778 12.6347C45.9083 11.5169 46.0078 10.8182 46.099 10.1408C46.1778 9.56492 46.2607 8.97214 46.1446 7.98558C46.0617 7.27424 45.6346 4.83961 43.7149 3.39153C42.5539 2.51506 41.0778 2.20597 39.3281 2.46848C39.2451 2.50659 39.1539 2.532 39.0585 2.532H38.9051C38.8098 2.532 38.7186 2.51083 38.6356 2.46848C36.8817 2.20597 35.4098 2.51506 34.2488 3.39153C32.329 4.83961 31.9061 7.27424 31.819 7.98558C31.7029 8.9679 31.8315 9.67077 31.9559 10.3482C32.101 11.1443 32.2544 11.9657 31.9849 13.0877C31.8937 13.4603 31.761 13.8033 31.6325 14.1378C31.4956 14.4935 31.3629 14.828 31.3007 15.1582L30.0776 14.9253C30.1605 14.4723 30.3222 14.0658 30.4756 13.6678C30.5959 13.3629 30.7078 13.0708 30.7783 12.7871C30.9856 11.9318 30.8737 11.339 30.7368 10.5853C30.6 9.8486 30.4466 9.01448 30.5876 7.83738C30.6871 6.99902 31.1929 4.12404 33.5107 2.37533C34.9827 1.26599 36.8237 0.884913 38.9839 1.24482C41.1442 0.884913 42.981 1.26599 44.4571 2.37533C46.7749 4.12404 47.2807 6.99902 47.3803 7.83738C47.5171 8.98907 47.4176 9.69617 47.3305 10.3228C47.2434 10.9537 47.1729 11.4533 47.3844 12.334C47.5254 12.9141 47.6746 13.7483 47.7949 14.4172L47.8861 14.9253C48.0561 15.8442 47.8571 16.818 47.3637 17.6225C48.6573 18.4736 49.4368 20.036 49.271 21.5984Z" fill="#0B0E11"/>
<path d="M10.2954 11.8176C10.6388 11.8176 10.9173 11.5333 10.9173 11.1825C10.9173 10.8317 10.6388 10.5474 10.2954 10.5474C9.95186 10.5474 9.6734 10.8317 9.6734 11.1825C9.6734 11.5333 9.95186 11.8176 10.2954 11.8176Z" fill="#0B0E11"/>
<path d="M15.271 11.8176C15.6145 11.8176 15.8929 11.5333 15.8929 11.1825C15.8929 10.8317 15.6145 10.5474 15.271 10.5474C14.9275 10.5474 14.649 10.8317 14.649 11.1825C14.649 11.5333 14.9275 11.8176 15.271 11.8176Z" fill="#0B0E11"/>
<path d="M12.6961 16.8476C12.0783 16.8476 11.448 16.6909 10.9339 16.3733C10.6395 16.1913 10.5483 15.8017 10.7266 15.5011C10.9049 15.2005 11.2863 15.1073 11.5807 15.2894C12.2607 15.7086 13.2434 15.6408 13.6995 15.3106C13.9815 15.1073 14.3671 15.1793 14.5661 15.4672C14.7651 15.7552 14.6946 16.1489 14.4127 16.3522C13.9483 16.6824 13.3305 16.8476 12.6961 16.8476Z" fill="#0B0E11"/>
<path d="M10.9878 10.1492H9.32926C8.98511 10.1492 8.70731 9.86546 8.70731 9.51403C8.70731 9.16259 8.98511 8.87891 9.32926 8.87891H10.9878C11.3319 8.87891 11.6097 9.16259 11.6097 9.51403C11.6097 9.86546 11.3319 10.1492 10.9878 10.1492Z" fill="#0B0E11"/>
<path d="M39.2285 14.8279C38.8388 14.8279 38.5983 14.667 38.4656 14.5315C38.1463 14.2013 38.1463 13.7567 38.1463 13.3629V12.1604C38.1463 11.6565 37.9805 11.4194 37.6281 11.4194H36.2805C35.9363 11.4194 35.6585 11.1357 35.6585 10.7843C35.6585 10.4329 35.9363 10.1492 36.2805 10.1492H37.6281C38.5071 10.1492 39.3902 10.7716 39.3902 12.1604V13.3629C39.3902 13.4306 39.3902 13.5111 39.3902 13.5831C39.6473 13.6593 39.8422 13.9049 39.8422 14.1928C39.8422 14.5442 39.5727 14.8279 39.2285 14.8279Z" fill="#0B0E11"/>
<path d="M41.3929 13.0879C41.7364 13.0879 42.0149 12.8035 42.0149 12.4527C42.0149 12.102 41.7364 11.8176 41.3929 11.8176C41.0494 11.8176 40.771 12.102 40.771 12.4527C40.771 12.8035 41.0494 13.0879 41.3929 13.0879Z" fill="#0B0E11"/>
<path d="M36.8319 13.0879C37.1754 13.0879 37.4539 12.8035 37.4539 12.4527C37.4539 12.102 37.1754 11.8176 36.8319 11.8176C36.4884 11.8176 36.21 12.102 36.21 12.4527C36.21 12.8035 36.4884 13.0879 36.8319 13.0879Z" fill="#0B0E11"/>
<path d="M39.2575 17.2965C38.76 17.2965 38.2583 17.1694 37.8561 16.9154C37.5658 16.7291 37.4746 16.3396 37.6571 16.0389C37.8395 15.7425 38.221 15.6494 38.5153 15.8357C38.93 16.0982 39.6266 16.0686 39.9127 15.8611C40.1905 15.6579 40.5802 15.7214 40.7793 16.0051C40.9783 16.2887 40.9161 16.6868 40.6383 16.89C40.2734 17.161 39.7717 17.2965 39.2575 17.2965Z" fill="#0B0E11"/>
<path d="M25.1186 27.882C24.6583 27.882 24.1856 27.7465 23.8125 27.4797C23.5305 27.2765 23.4642 26.8827 23.6632 26.5948C23.8622 26.3069 24.2478 26.2391 24.5298 26.4423C24.8532 26.6752 25.4005 26.6541 25.6203 26.4678C25.8856 26.2476 26.2795 26.2857 26.4951 26.5567C26.7107 26.8277 26.6734 27.2299 26.4081 27.4501C26.0639 27.7338 25.5954 27.8777 25.1186 27.8777V27.882Z" fill="#0B0E11"/>
<path d="M42.0854 11.4194H40.8415C40.4973 11.4194 40.2195 11.1357 40.2195 10.7843C40.2195 10.4329 40.4973 10.1492 40.8415 10.1492H42.0854C42.4295 10.1492 42.7073 10.4329 42.7073 10.7843C42.7073 11.1357 42.4295 11.4194 42.0854 11.4194Z" fill="#0B0E11"/>
<path d="M22.9085 23.6518C23.252 23.6518 23.5305 23.3675 23.5305 23.0167C23.5305 22.6659 23.252 22.3816 22.9085 22.3816C22.565 22.3816 22.2866 22.6659 22.2866 23.0167C22.2866 23.3675 22.565 23.6518 22.9085 23.6518Z" fill="#0B0E11"/>
<path d="M27.4695 23.6518C27.813 23.6518 28.0915 23.3675 28.0915 23.0167C28.0915 22.6659 27.813 22.3816 27.4695 22.3816C27.126 22.3816 26.8476 22.6659 26.8476 23.0167C26.8476 23.3675 27.126 23.6518 27.4695 23.6518Z" fill="#0B0E11"/>
</g>
<defs>
<clipPath id="clip0_6_783">
<rect width="51" height="40" fill="white"/>
</clipPath>
</defs>
</svg>
