<svg width="45" height="45" viewBox="0 0 45 45" fill="none" xmlns="http://www.w3.org/2000/svg">
<g clip-path="url(#clip0_71_61)">
<path d="M37.7434 36H8.24996C5.35412 36 3 33.7261 3 30.9289V14.7339C3 11.9367 5.35412 9.66279 8.24996 9.66279H15.4461L17.2785 6.34238C17.3922 6.1292 17.6196 6 17.8671 6H28.1195C28.367 6 28.5944 6.1292 28.7081 6.34238L30.5405 9.66279H37.7367C40.6325 9.66279 42.9866 11.9367 42.9866 14.7339V30.9225C42.9866 33.7196 40.6325 35.9935 37.7367 35.9935L37.7434 36ZM8.24996 10.9548C6.08978 10.9548 4.33757 12.6537 4.33757 14.7339V30.9225C4.33757 33.009 6.09647 34.7016 8.24996 34.7016H37.7434C39.9035 34.7016 41.6557 33.0026 41.6557 30.9225V14.7339C41.6557 12.6473 39.8968 10.9548 37.7434 10.9548H30.146C29.8985 10.9548 29.6711 10.8256 29.5574 10.6124L27.725 7.29199H18.2683L16.4359 10.6124C16.3222 10.8256 16.0948 10.9548 15.8473 10.9548H8.24996Z" fill="black"/>
<path d="M22.9967 32.3372C17.5661 32.3372 13.1522 28.0736 13.1522 22.8281C13.1522 17.5827 17.5661 13.3191 22.9967 13.3191C28.4272 13.3191 32.8412 17.5827 32.8412 22.8281C32.8412 28.0736 28.4272 32.3372 22.9967 32.3372ZM22.9967 14.6111C18.3085 14.6111 14.4897 18.2997 14.4897 22.8281C14.4897 27.3566 18.3085 31.0452 22.9967 31.0452C27.6848 31.0452 31.5036 27.3566 31.5036 22.8281C31.5036 18.2997 27.6848 14.6111 22.9967 14.6111Z" fill="black"/>
<path d="M22.9967 29.3463C19.2782 29.3463 16.2553 26.4264 16.2553 22.8346C16.2553 19.2429 19.2782 16.323 22.9967 16.323C26.7151 16.323 29.738 19.2429 29.738 22.8346C29.738 26.4264 26.7151 29.3463 22.9967 29.3463ZM22.9967 17.6085C20.0139 17.6085 17.5929 19.9535 17.5929 22.8282C17.5929 25.7028 20.0206 28.0478 22.9967 28.0478C25.9727 28.0478 28.4004 25.7028 28.4004 22.8282C28.4004 19.9535 25.9727 17.6085 22.9967 17.6085Z" fill="black"/>
<path d="M35.4294 17.4471C34.152 17.4471 33.1154 16.4458 33.1154 15.2119C33.1154 13.9781 34.152 12.9768 35.4294 12.9768C36.7067 12.9768 37.7433 13.9781 37.7433 15.2119C37.7433 16.4458 36.7067 17.4471 35.4294 17.4471ZM35.4294 14.2623C34.8876 14.2623 34.4529 14.6887 34.4529 15.2055C34.4529 15.7223 34.8943 16.1486 35.4294 16.1486C35.9644 16.1486 36.4058 15.7223 36.4058 15.2055C36.4058 14.6887 35.9644 14.2623 35.4294 14.2623Z" fill="black"/>
<path d="M13.8276 10.9547H8.24996C7.88213 10.9547 7.58118 10.664 7.58118 10.3087V7.50513C7.58118 7.14983 7.88213 6.85913 8.24996 6.85913H13.8209C14.1888 6.85913 14.4897 7.14983 14.4897 7.50513V10.3023C14.4897 10.6576 14.1888 10.9483 13.8209 10.9483L13.8276 10.9547ZM8.92543 9.66275H13.1588V8.15758H8.92543V9.66275Z" fill="black"/>
</g>
<g clip-path="url(#clip1_71_61)">
<path d="M0.841341 45.0001C0.624995 45.0001 0.408649 44.9279 0.24038 44.7597C-0.0961585 44.4231 -0.0961585 43.8943 0.24038 43.5578L43.5577 0.240441C43.8942 -0.0960975 44.4231 -0.0960975 44.7356 0.240441C45.0481 0.576979 45.0721 1.10583 44.7356 1.44236L1.4423 44.7597C1.27403 44.9279 1.05769 45.0001 0.841341 45.0001Z" fill="#000001"/>
</g>
<defs>
<clipPath id="clip0_71_61">
<rect width="40" height="30" fill="white" transform="translate(3 6)"/>
</clipPath>
<clipPath id="clip1_71_61">
<rect width="45" height="45" fill="white"/>
</clipPath>
</defs>
</svg>
