<svg width="45" height="45" viewBox="0 0 45 45" fill="none" xmlns="http://www.w3.org/2000/svg">
<g clip-path="url(#clip0_71_60)">
<path d="M25.2508 43.0001C22.4211 43.0001 19.7523 41.9308 17.7338 39.9867C17.7028 39.9624 17.6718 39.932 17.6471 39.9017C17.1641 39.4339 16.7121 38.8871 16.3158 38.3038L6.5511 26.6635C6.13004 26.1592 5.93809 25.5031 6.01859 24.8591C6.09909 24.203 6.44583 23.6258 6.98453 23.237C8.02478 22.4837 9.50466 22.6963 10.3653 23.717L14.5016 28.6501V9.94418C14.5016 9.29412 14.7802 8.66228 15.257 8.21878C15.7461 7.76313 16.3901 7.53835 17.0588 7.56872C18.3468 7.63555 19.3561 8.72304 19.3561 10.0475V21.5663C19.3561 21.7546 19.5108 21.9065 19.7028 21.9065C19.8948 21.9065 20.0496 21.7546 20.0496 21.5663V5.3816C20.0496 4.73154 20.3282 4.09971 20.805 3.65621C21.2941 3.20056 21.9381 2.97577 22.6068 3.00007C23.8948 3.0669 24.904 4.15438 24.904 5.47881V21.5602C24.904 21.7486 25.0588 21.9004 25.2508 21.9004C25.4427 21.9004 25.5975 21.7486 25.5975 21.5602V7.39861C25.5975 6.6878 25.9195 6.01951 26.4768 5.56386C27.0341 5.10821 27.7709 4.93203 28.4954 5.06569C29.6285 5.27832 30.4458 6.28683 30.4458 7.46544V21.5663C30.4458 21.7546 30.6006 21.9065 30.7926 21.9065C30.9845 21.9065 31.1393 21.7546 31.1393 21.5663V10.0414C31.1393 8.71696 32.1486 7.62948 33.4365 7.56265C34.1053 7.53835 34.7492 7.75706 35.2384 8.21271C35.7214 8.66228 35.9938 9.28804 35.9938 9.9381V32.4472C35.9938 38.2613 31.1703 42.994 25.2446 42.994L25.2508 43.0001ZM18.5325 39.0572C18.5325 39.0572 18.5511 39.0754 18.5573 39.0815C20.353 40.8251 22.7245 41.785 25.2508 41.785C30.4954 41.785 34.7616 37.5991 34.7616 32.4533V9.94418C34.7616 9.62219 34.6316 9.31842 34.3901 9.09971C34.1548 8.87492 33.839 8.76556 33.5108 8.78379C32.8917 8.81417 32.3901 9.38525 32.3901 10.0475V21.5663C32.3901 22.4229 31.678 23.1216 30.805 23.1216C29.9319 23.1216 29.2198 22.4229 29.2198 21.5663V7.45937C29.2198 6.87006 28.8112 6.35366 28.2725 6.25038C27.9071 6.18355 27.5542 6.2686 27.2756 6.49339C27.0031 6.71818 26.8421 7.04624 26.8421 7.39254V21.5602C26.8421 22.4168 26.13 23.1155 25.257 23.1155C24.3839 23.1155 23.6718 22.4168 23.6718 21.5602V5.47881C23.6718 4.8166 23.1703 4.24551 22.5511 4.21514C22.2353 4.19691 21.9071 4.31234 21.6718 4.53106C21.4365 4.74977 21.3003 5.05353 21.3003 5.37553V21.5602C21.3003 22.4168 20.5882 23.1155 19.7152 23.1155C18.8421 23.1155 18.13 22.4168 18.13 21.5602V10.0414C18.13 9.37917 17.6285 8.80809 17.0093 8.77771C16.6935 8.75949 16.3653 8.87492 16.13 9.09363C15.8886 9.31842 15.7585 9.61611 15.7585 9.9381V30.3451C15.7585 30.6003 15.5913 30.8312 15.3499 30.9162C15.1022 31.0013 14.8297 30.9284 14.6626 30.7279L9.43035 24.4825C8.99692 23.9661 8.2415 23.8445 7.74614 24.203C7.47989 24.3974 7.31271 24.6769 7.26936 24.9989C7.22602 25.3209 7.3189 25.6307 7.52943 25.8859L17.3251 37.5748C17.709 38.1337 18.1115 38.6137 18.5511 39.045L18.5325 39.0572Z" fill="black"/>
</g>
<g clip-path="url(#clip1_71_60)">
<path d="M0.841341 45.0001C0.624995 45.0001 0.408649 44.9279 0.24038 44.7597C-0.0961585 44.4231 -0.0961585 43.8943 0.24038 43.5578L43.5577 0.240441C43.8942 -0.0960975 44.4231 -0.0960975 44.7356 0.240441C45.0481 0.576979 45.0721 1.10583 44.7356 1.44236L1.4423 44.7597C1.27403 44.9279 1.05769 45.0001 0.841341 45.0001Z" fill="#000001"/>
</g>
<defs>
<clipPath id="clip0_71_60">
<rect width="30" height="40" fill="white" transform="translate(6 3)"/>
</clipPath>
<clipPath id="clip1_71_60">
<rect width="45" height="45" fill="white"/>
</clipPath>
</defs>
</svg>
